<?xml version="1.0" standalone="no"?><!DOCTYPE svg PUBLIC "-//W3C//DTD SVG 1.1//EN" "http://www.w3.org/Graphics/SVG/1.1/DTD/svg11.dtd"><svg t="1555142216429" class="icon" style="" viewBox="0 0 1024 1024" version="1.1" xmlns="http://www.w3.org/2000/svg" p-id="2584" xmlns:xlink="http://www.w3.org/1999/xlink" width="128" height="128"><defs><style type="text/css"></style></defs><path d="M909.02 122.146v529.228h-40.266V203.502c0-22.184-18.028-40.21-40.21-40.21H197.022c-22.236 0-40.21 18.028-40.21 40.21v447.872H114.944V122.146H909.02z" fill="#FFD452" p-id="2585"></path><path d="M944.156 36.988H79.74c-22.65 0-41.042 18.442-41.042 41.094v684.664c0 22.598 18.39 41.042 41.042 41.042h864.416c22.65 0 41.042-18.444 41.042-41.042V78.082c0-22.652-18.39-41.094-41.042-41.094zM721.546 706.536H59.738V66.964h904.42v639.572H721.546z" fill="#DFDFDF" p-id="2586"></path><path d="M665.902 961.258h-298.26a7.792 7.792 0 0 1-7.194-10.79l50.224-120.482a7.794 7.794 0 0 1 7.194-4.794h197.81c3.146 0 5.982 1.89 7.194 4.794l50.226 120.482a7.798 7.798 0 0 1-7.194 10.79z m-286.57-15.586h274.88l-43.732-104.896h-187.42l-43.728 104.896z" fill="#4A555F" p-id="2587"></path><path d="M411.434 924.278l25.886-62.104h158.9l25.89 62.104z" fill="#DFDFDF" p-id="2588"></path><path d="M234.12 1024a7.79 7.79 0 0 1-7.794-7.794v-62.742a7.792 7.792 0 0 1 7.792-7.792H799.42a7.792 7.792 0 0 1 7.792 7.792v62.74a7.792 7.792 0 0 1-7.792 7.792L234.12 1024z m7.794-62.742v47.156l549.716-0.002v-47.154H241.914z" fill="#4A555F" p-id="2589"></path><path d="M35.934 1008.414h961.674V1024H35.934z" fill="#4A555F" p-id="2590"></path><path d="M517.526 756.142m-37.862 0a37.862 37.862 0 1 0 75.724 0 37.862 37.862 0 1 0-75.724 0Z" fill="#FFFFFF" p-id="2591"></path><path d="M517.526 801.796c-25.174 0-45.656-20.482-45.656-45.656s20.482-45.656 45.656-45.656 45.656 20.482 45.656 45.656c0 25.176-20.482 45.656-45.656 45.656z m0-75.724c-16.58 0-30.07 13.49-30.07 30.07s13.49 30.07 30.07 30.07 30.07-13.49 30.07-30.07-13.49-30.07-30.07-30.07z" fill="#4A555F" p-id="2592"></path><path d="M944.206 840.778H79.792c-23.338 0-45.274-10.348-60.192-28.386a76.176 76.176 0 0 1-4.526-6.042 79.05 79.05 0 0 1-3.914-6.454 75.612 75.612 0 0 1-5.88-13.954 75.608 75.608 0 0 1-2.6-11.342 73.758 73.758 0 0 1-0.918-11.854V78.082C1.76 35.026 36.764 0 79.792 0h864.414c43.028 0 78.034 35.026 78.034 78.082v684.666c0 43.026-35.006 78.03-78.034 78.03zM79.792 15.586c-34.432 0-62.446 28.036-62.446 62.496v684.666c0 3.312 0.246 6.492 0.73 9.442a59.526 59.526 0 0 0 2.086 9.122 58.956 58.956 0 0 0 4.68 11.124c1.014 1.884 2.086 3.6 3.198 5.268a58.734 58.734 0 0 0 3.582 4.768c11.932 14.436 29.494 22.722 48.17 22.722h864.414c34.432 0 62.448-28.012 62.448-62.446V78.082c0-34.46-28.016-62.496-62.448-62.496H79.792z" fill="#4A555F" p-id="2593"></path><path d="M935.014 685.132H88.986a7.792 7.792 0 0 1-7.792-7.792V96.16a7.792 7.792 0 0 1 7.792-7.792h846.026a7.792 7.792 0 0 1 7.792 7.792v581.18a7.79 7.79 0 0 1-7.79 7.792zM96.78 669.546h830.44V103.954H96.78v565.592z" fill="#4A555F" p-id="2594"></path><path d="M868.724 685.132H156.8a7.792 7.792 0 0 1-7.792-7.792V203.512c0-26.466 21.532-47.996 47.996-47.996h631.52c26.462 0 47.994 21.532 47.994 47.996V677.34a7.794 7.794 0 0 1-7.794 7.792z m-704.132-15.586h696.34V203.512c0-17.87-14.54-32.412-32.408-32.412H197.004c-17.87 0-32.412 14.54-32.412 32.412v466.034z" fill="#4A555F" p-id="2595"></path><path d="M156.8 214.154h711.924v15.586H156.8z" fill="#4A555F" p-id="2596"></path><path d="M194.314 191.858m-11.386 0a11.386 11.386 0 1 0 22.772 0 11.386 11.386 0 1 0-22.772 0Z" fill="#F58E6F" p-id="2597"></path><path d="M229.866 191.858m-11.386 0a11.386 11.386 0 1 0 22.772 0 11.386 11.386 0 1 0-22.772 0Z" fill="#F58E6F" p-id="2598"></path><path d="M265.42 191.858m-11.386 0a11.386 11.386 0 1 0 22.772 0 11.386 11.386 0 1 0-22.772 0Z" fill="#F58E6F" p-id="2599"></path><path d="M809.682 485.068H566.996v-6.944c0-23.502-19.052-42.556-42.556-42.556h-5.512v-28.79l53.54-5.99a7.434 7.434 0 0 0-0.826-14.822h-52.714v-28.224a6.982 6.982 0 0 0-13.964 0v28.132l-52.74 0.18a7.434 7.434 0 0 0-0.776 14.824l53.514 5.802v28.886h-5.512c-23.502 0-42.556 19.052-42.556 42.556v6.944H214.21a9.524 9.524 0 0 0-1.214 18.974l142.778 18.364c-5.104 4.348-8.412 10.744-8.412 17.976 0 13.094 10.616 23.708 23.71 23.708 13.094 0 23.71-10.616 23.71-23.708 0-5.026-1.586-9.67-4.256-13.506l66.374 8.536v1.536c0 23.502 19.052 42.556 42.556 42.556h6.614v18.382a7.568 7.568 0 0 0-5.162 7.158v17.434c0 4.194 3.4 7.594 7.594 7.594h6.896c4.194 0 7.594-3.4 7.594-7.594v-17.434c0-3.336-2.168-6.14-5.162-7.158v-18.382h6.614c23.502 0 42.556-19.054 42.556-42.556v-1.536l66.374-8.536a23.568 23.568 0 0 0-4.256 13.506c0 13.094 10.614 23.708 23.708 23.708 13.094 0 23.71-10.616 23.71-23.708 0-7.232-3.306-13.626-8.412-17.976l142.778-18.364a9.526 9.526 0 0 0-1.22-18.972z" fill="#F58E6F" p-id="2600"></path><path d="M156.8 280.448h711.924v15.586H156.8z" fill="#4A555F" p-id="2601"></path></svg>